<?xml version="1.0" encoding="iso-8859-1"?>
<!-- Generator: Adobe Illustrator 18.0.0, SVG Export Plug-In . SVG Version: 6.00 Build 0)  -->
<!DOCTYPE svg PUBLIC "-//W3C//DTD SVG 1.1//EN" "http://www.w3.org/Graphics/SVG/1.1/DTD/svg11.dtd">
<svg version="1.1" id="Capa_1" xmlns="http://www.w3.org/2000/svg" xmlns:xlink="http://www.w3.org/1999/xlink" x="0px" y="0px"
	 viewBox="0 0 173.195 173.195" style="enable-background:new 0 0 173.195 173.195;" xml:space="preserve">
<g>
	<path d="M106.834,135.621c-1.742-1.357-4.256-1.046-5.614,0.696c-2.733,3.508-7.069,4.15-14.622,4.15s-11.889-0.642-14.622-4.15
		c-1.358-1.743-3.872-2.054-5.614-0.697c-1.742,1.358-2.054,3.872-0.696,5.614c5.205,6.68,12.872,7.233,20.933,7.233
		s15.728-0.553,20.933-7.232C108.888,139.492,108.576,136.979,106.834,135.621z"/>
	<path d="M78.73,122.066c2.036,0.937,4.83,1.453,7.867,1.453s5.831-0.516,7.867-1.453c2.007-0.924,2.886-3.299,1.962-5.306
		s-3.3-2.884-5.306-1.961c-0.723,0.333-2.341,0.721-4.523,0.721s-3.801-0.388-4.523-0.721c-2.006-0.924-4.382-0.045-5.306,1.961
		S76.724,121.143,78.73,122.066z"/>
	<circle cx="63.209" cy="98.891" r="5.611"/>
	<circle cx="109.986" cy="98.891" r="5.611"/>
	<path d="M160.658,74.061C160.658,33.224,127.435,0,86.598,0S12.537,33.224,12.537,74.061c0,18.677,6.899,36.325,19.461,50.015
		v7.547c0,0.673,0.104,1.342,0.31,1.983c7.587,23.68,29.405,39.589,54.291,39.589c24.882,0,46.699-15.908,54.29-39.584
		c0.206-0.642,0.311-1.311,0.311-1.984v-7.553C153.76,110.382,160.658,92.736,160.658,74.061z M25.537,74.061
		C25.537,40.392,52.929,13,86.598,13s61.061,27.392,61.061,61.061c0,9.65-2.246,18.963-6.46,27.354l-0.001-27.355
		c0-3.59-2.91-6.5-6.5-6.5l-96.199,0c-3.59,0-6.5,2.91-6.5,6.5v27.358C27.783,93.026,25.537,83.712,25.537,74.061z M86.599,160.195
		c-18.884,0-35.479-11.863-41.601-29.624V80.561l83.199,0l0.002,50.015C122.073,148.334,105.479,160.195,86.599,160.195z"/>
</g>
<g>
</g>
<g>
</g>
<g>
</g>
<g>
</g>
<g>
</g>
<g>
</g>
<g>
</g>
<g>
</g>
<g>
</g>
<g>
</g>
<g>
</g>
<g>
</g>
<g>
</g>
<g>
</g>
<g>
</g>
</svg>
