<?xml version="1.0" encoding="iso-8859-1"?>
<!-- Generator: Adobe Illustrator 19.0.0, SVG Export Plug-In . SVG Version: 6.00 Build 0)  -->
<svg version="1.1" id="Layer_1" xmlns="http://www.w3.org/2000/svg" xmlns:xlink="http://www.w3.org/1999/xlink" x="0px" y="0px"
	 viewBox="0 0 512 512" style="enable-background:new 0 0 512 512;" xml:space="preserve">
<g transform="translate(0 -1)">
	<g>
		<g>
			<path d="M503.467,239.933l-170.667-128c-14.064-10.548-34.133-0.513-34.133,17.067v64h-85.333
				C201.551,193,192,202.551,192,214.333v85.333c0,11.782,9.551,21.333,21.333,21.333h85.333v64c0,17.58,20.07,27.614,34.133,17.067
				l170.667-128C514.844,265.533,514.844,248.467,503.467,239.933z M341.333,342.333v-42.667c0-11.782-9.551-21.333-21.333-21.333
				h-85.333v-42.667H320c11.782,0,21.333-9.551,21.333-21.333v-42.667L455.111,257L341.333,342.333z"/>
			<path d="M149.333,193C137.551,193,128,202.551,128,214.333v85.333c0,11.782,9.551,21.333,21.333,21.333
				c11.782,0,21.333-9.551,21.333-21.333v-85.333C170.667,202.551,161.115,193,149.333,193z"/>
			<path d="M85.333,193C73.551,193,64,202.551,64,214.333v85.333C64,311.449,73.551,321,85.333,321
				c11.782,0,21.333-9.551,21.333-21.333v-85.333C106.667,202.551,97.115,193,85.333,193z"/>
			<path d="M21.333,193C9.551,193,0,202.551,0,214.333v85.333C0,311.449,9.551,321,21.333,321c11.782,0,21.333-9.551,21.333-21.333
				v-85.333C42.667,202.551,33.115,193,21.333,193z"/>
		</g>
	</g>
</g>
<g>
</g>
<g>
</g>
<g>
</g>
<g>
</g>
<g>
</g>
<g>
</g>
<g>
</g>
<g>
</g>
<g>
</g>
<g>
</g>
<g>
</g>
<g>
</g>
<g>
</g>
<g>
</g>
<g>
</g>
</svg>
